<?xml version="1.0" encoding="utf-8"?>
<!-- Generator: Adobe Illustrator 27.0.1, SVG Export Plug-In . SVG Version: 6.00 Build 0)  -->
<svg version="1.1" id="Layer_1" xmlns="http://www.w3.org/2000/svg" xmlns:xlink="http://www.w3.org/1999/xlink" x="0px" y="0px"
	 viewBox="0 0 2412.6 733.7" style="enable-background:new 0 0 2412.6 733.7;" xml:space="preserve">
<style type="text/css">
	.st0{fill:#FFFFFF;}
</style>
<g>
	<g>
		<g>
			<path d="M2319.4,733.7H93.3C41.8,733.7,0,691.9,0,640.4V93.3C0,41.8,41.8,0,93.3,0h2226.1c51.5,0,93.3,41.8,93.3,93.3v547.2
				C2412.6,691.9,2370.9,733.7,2319.4,733.7z"/>
		</g>
		<g id="XMLID_27_">
			<g id="XMLID_37_">
				<path class="st0" d="M149.8,299.8c-39.1,67.9-14.3,171,29,233.5c21.6,31.2,43.5,59.3,73.4,59.3c0.6,0,1.1,0,1.7,0
					c14.1-0.6,24.2-4.9,34.1-9.1c11-4.7,22.5-9.6,40.4-9.6c17,0,27.9,4.7,38.4,9.3c10.4,4.5,21,9.1,36.8,8.8
					c33.7-0.6,54.5-30.9,72.7-57.6c19.1-27.9,28.6-54.9,31.9-65.3l0.1-0.4c0.6-1.8-0.3-3.8-2-4.7c0,0-0.2-0.1-0.3-0.1
					c-5.9-2.4-58.1-25.6-58.6-88.6c-0.5-51.2,39.1-78.3,47-83.2l0.4-0.2c0.9-0.6,1.5-1.4,1.7-2.4c0.2-1,0-2.1-0.6-2.9
					c-27.3-40-69.2-46-86.1-46.8c-2.4-0.2-5-0.4-7.5-0.4c-19.8,0-38.8,7.5-54.1,13.5c-10.5,4.2-19.6,7.7-25.9,7.7
					c-7.1,0-16.2-3.6-26.8-7.8c-14.2-5.6-30.2-12-47.2-12c-0.4,0-0.8,0-1.2,0C207.7,241.4,170.4,264,149.8,299.8z"/>
			</g>
			<g id="XMLID_34_">
				<path class="st0" d="M409.9,129.6c-23.9,1-52.6,15.7-69.8,35.8c-14.6,16.9-28.8,45-25.1,73.4c0.2,1.8,1.7,3.1,3.5,3.3
					c1.6,0.1,3.3,0.2,4.9,0.2c23.4,0,48.6-12.9,65.9-33.8c18.1-22,27.3-50.2,24.5-75.5C413.6,131,411.8,129.5,409.9,129.6z"/>
			</g>
		</g>
		<g>
			<g>
				<path class="st0" d="M685.2,127.7h45.4c11.9,0,22.5,2.5,31.7,7.4c9.2,4.9,16.4,11.7,21.5,20.4c5.1,8.7,7.7,18.5,7.7,29.6
					c0,11-2.6,20.9-7.7,29.6c-5.1,8.7-12.3,15.5-21.5,20.4c-9.2,4.9-19.8,7.4-31.7,7.4h-45.4V127.7z M729.9,234.8
					c10.6,0,19.9-2.1,28-6.3c8.1-4.2,14.3-10.1,18.7-17.6c4.4-7.5,6.6-16.2,6.6-25.9c0-9.7-2.2-18.3-6.6-25.9
					c-4.4-7.5-10.6-13.4-18.7-17.6c-8.1-4.2-17.4-6.3-28-6.3h-36.4v99.6H729.9z"/>
				<path class="st0" d="M829.4,237.4c-6.5-3.7-11.6-8.9-15.3-15.5c-3.7-6.6-5.6-14.1-5.6-22.4c0-8.3,1.9-15.8,5.6-22.4
					c3.7-6.6,8.8-11.8,15.3-15.5c6.5-3.7,13.8-5.6,21.9-5.6c8.1,0,15.4,1.9,21.9,5.6c6.5,3.7,11.6,8.9,15.3,15.5
					c3.7,6.6,5.6,14.1,5.6,22.4c0,8.3-1.9,15.8-5.6,22.4c-3.7,6.6-8.8,11.8-15.3,15.5c-6.5,3.7-13.8,5.6-21.9,5.6
					C843.2,243,835.9,241.1,829.4,237.4z M868.9,231c5.2-3.1,9.3-7.3,12.3-12.8c3-5.5,4.5-11.7,4.5-18.7c0-7-1.5-13.2-4.5-18.7
					c-3-5.5-7.1-9.7-12.3-12.8c-5.2-3.1-11.1-4.6-17.6-4.6c-6.6,0-12.4,1.5-17.6,4.6c-5.2,3.1-9.3,7.3-12.3,12.8
					c-3,5.5-4.5,11.7-4.5,18.7c0,7,1.5,13.2,4.5,18.7c3,5.5,7.1,9.7,12.3,12.8c5.2,3.1,11.1,4.6,17.6,4.6
					C857.8,235.6,863.7,234.1,868.9,231z"/>
				<path class="st0" d="M1039.1,156.8l-32.4,85.5H999l-28.8-74.2l-29,74.2h-7.5l-32.4-85.5h7.9l28.5,76.3l29.2-76.3h7l29,76.2
					l28.8-76.2H1039.1z"/>
				<path class="st0" d="M1125.3,165.5c6.2,6.2,9.3,15.2,9.3,26.9v50h-8.2V193c0-9.6-2.4-16.9-7.3-21.9c-4.9-5-11.7-7.5-20.4-7.5
					c-10,0-18,3-23.8,9c-5.8,6-8.7,14.1-8.7,24.2v45.5h-8.2v-85.5h7.9v18.5c2.9-6,7.3-10.7,13.2-14.1c5.8-3.4,12.7-5.1,20.7-5.1
					C1110.6,156.2,1119.1,159.3,1125.3,165.5z"/>
				<path class="st0" d="M1168.4,120.8h8.2v121.5h-8.2V120.8z"/>
				<path class="st0" d="M1222.6,237.4c-6.5-3.7-11.6-8.9-15.3-15.5c-3.7-6.6-5.6-14.1-5.6-22.4c0-8.3,1.9-15.8,5.6-22.4
					c3.7-6.6,8.8-11.8,15.3-15.5c6.5-3.7,13.8-5.6,21.9-5.6c8.1,0,15.4,1.9,21.9,5.6c6.5,3.7,11.6,8.9,15.3,15.5
					c3.7,6.6,5.6,14.1,5.6,22.4c0,8.3-1.9,15.8-5.6,22.4c-3.7,6.6-8.8,11.8-15.3,15.5c-6.5,3.7-13.8,5.6-21.9,5.6
					C1236.4,243,1229.1,241.1,1222.6,237.4z M1262.1,231c5.2-3.1,9.3-7.3,12.3-12.8c3-5.5,4.5-11.7,4.5-18.7c0-7-1.5-13.2-4.5-18.7
					c-3-5.5-7.1-9.7-12.3-12.8c-5.2-3.1-11.1-4.6-17.6-4.6s-12.4,1.5-17.6,4.6c-5.2,3.1-9.3,7.3-12.3,12.8c-3,5.5-4.5,11.7-4.5,18.7
					c0,7,1.5,13.2,4.5,18.7c3,5.5,7.1,9.7,12.3,12.8c5.2,3.1,11.1,4.6,17.6,4.6S1256.9,234.1,1262.1,231z"/>
				<path class="st0" d="M1365.6,164.3c5.7,5.4,8.5,13.3,8.5,23.8v54.2h-7.9v-15.2c-2.7,5-6.7,8.9-12,11.7
					c-5.2,2.8-11.5,4.2-18.8,4.2c-9.5,0-17-2.2-22.5-6.7c-5.5-4.5-8.3-10.4-8.3-17.7c0-7.1,2.5-12.9,7.6-17.3
					c5.1-4.4,13.2-6.6,24.3-6.6h29.3v-6.9c0-8-2.2-14-6.5-18.2c-4.3-4.1-10.6-6.2-18.9-6.2c-5.7,0-11.1,1-16.3,2.9
					c-5.2,2-9.6,4.6-13.2,7.9l-4.1-5.9c4.3-3.8,9.4-6.8,15.4-8.9c6-2.1,12.3-3.2,18.8-3.2C1351.7,156.2,1359.9,158.9,1365.6,164.3z
					 M1354.7,231.3c5-3.3,8.7-8,11.2-14.2V201h-29.2c-8.4,0-14.5,1.5-18.3,4.6c-3.8,3.1-5.7,7.3-5.7,12.6c0,5.6,2.1,10,6.2,13.2
					c4.1,3.2,10,4.8,17.5,4.8C1343.7,236.3,1349.7,234.6,1354.7,231.3z"/>
				<path class="st0" d="M1484,120.8v121.5h-8v-20.1c-3.4,6.7-8.1,11.8-14.2,15.4c-6.1,3.6-13,5.4-20.8,5.4c-8,0-15.2-1.9-21.6-5.6
					c-6.4-3.7-11.5-8.8-15.2-15.4c-3.7-6.6-5.5-14-5.5-22.4c0-8.4,1.8-15.9,5.5-22.5c3.7-6.6,8.7-11.7,15.2-15.4
					c6.4-3.7,13.6-5.5,21.6-5.5c7.6,0,14.5,1.8,20.6,5.4c6.1,3.6,10.8,8.6,14.3,15.1v-55.9H1484z M1459,231
					c5.2-3.1,9.3-7.3,12.3-12.8c3-5.5,4.5-11.7,4.5-18.7c0-7-1.5-13.2-4.5-18.7c-3-5.5-7.1-9.7-12.3-12.8
					c-5.2-3.1-11.1-4.6-17.6-4.6s-12.4,1.5-17.6,4.6c-5.2,3.1-9.3,7.3-12.3,12.8c-3,5.5-4.5,11.7-4.5,18.7c0,7,1.5,13.2,4.5,18.7
					c3,5.5,7.1,9.7,12.3,12.8c5.2,3.1,11.1,4.6,17.6,4.6S1453.8,234.1,1459,231z"/>
				<path class="st0" d="M1572.2,237.4c-6.5-3.7-11.6-8.9-15.3-15.5c-3.7-6.6-5.6-14.1-5.6-22.4c0-8.3,1.9-15.8,5.6-22.4
					c3.7-6.6,8.8-11.8,15.3-15.5c6.5-3.7,13.8-5.6,21.9-5.6c8.1,0,15.4,1.9,21.9,5.6c6.5,3.7,11.6,8.9,15.3,15.5
					c3.7,6.6,5.6,14.1,5.6,22.4c0,8.3-1.9,15.8-5.6,22.4c-3.7,6.6-8.8,11.8-15.3,15.5c-6.5,3.7-13.8,5.6-21.9,5.6
					C1586,243,1578.7,241.1,1572.2,237.4z M1611.6,231c5.2-3.1,9.3-7.3,12.3-12.8c3-5.5,4.5-11.7,4.5-18.7c0-7-1.5-13.2-4.5-18.7
					c-3-5.5-7.1-9.7-12.3-12.8c-5.2-3.1-11.1-4.6-17.6-4.6s-12.4,1.5-17.6,4.6c-5.2,3.1-9.3,7.3-12.3,12.8c-3,5.5-4.5,11.7-4.5,18.7
					c0,7,1.5,13.2,4.5,18.7c3,5.5,7.1,9.7,12.3,12.8c5.2,3.1,11.1,4.6,17.6,4.6S1606.5,234.1,1611.6,231z"/>
				<path class="st0" d="M1729.3,165.5c6.2,6.2,9.3,15.2,9.3,26.9v50h-8.2V193c0-9.6-2.4-16.9-7.3-21.9c-4.9-5-11.7-7.5-20.4-7.5
					c-10,0-18,3-23.8,9c-5.8,6-8.7,14.1-8.7,24.2v45.5h-8.2v-85.5h7.9v18.5c2.9-6,7.3-10.7,13.2-14.1c5.8-3.4,12.7-5.1,20.7-5.1
					C1714.6,156.2,1723.1,159.3,1729.3,165.5z"/>
				<path class="st0" d="M1856.9,236.9c-2.1,2-4.7,3.5-7.8,4.5c-3.1,1-6.4,1.6-9.7,1.6c-7.4,0-13.2-2-17.2-6.1
					c-4-4.1-6.1-9.8-6.1-17.1v-55.9h-15.7v-7h15.7v-18.7h8.2v18.7h27.2v7h-27.2v55c0,5.6,1.3,9.8,4,12.7c2.7,2.9,6.6,4.3,11.9,4.3
					c5.3,0,9.8-1.6,13.3-4.8L1856.9,236.9z"/>
				<path class="st0" d="M1946.8,165.5c6.2,6.2,9.3,15.2,9.3,26.9v50h-8.2V193c0-9.6-2.4-16.9-7.3-21.9c-4.9-5-11.7-7.5-20.4-7.5
					c-10,0-18,3-23.8,9c-5.8,6-8.7,14.1-8.7,24.2v45.5h-8.2V120.8h8.2v53.9c2.9-5.9,7.3-10.5,13.1-13.7c5.8-3.2,12.6-4.8,20.5-4.8
					C1932.2,156.2,1940.6,159.3,1946.8,165.5z"/>
				<path class="st0" d="M2062.3,201.5h-73.5c0.2,6.7,1.9,12.6,5.1,17.8c3.2,5.2,7.5,9.2,12.9,12c5.4,2.8,11.5,4.3,18.3,4.3
					c5.6,0,10.7-1,15.5-3c4.8-2,8.7-5,11.9-8.9l4.8,5.4c-3.7,4.5-8.4,7.9-14,10.3c-5.6,2.4-11.7,3.6-18.3,3.6
					c-8.5,0-16.1-1.9-22.8-5.6c-6.7-3.7-11.9-8.8-15.6-15.4c-3.8-6.6-5.7-14-5.7-22.4c0-8.3,1.8-15.8,5.3-22.4
					c3.5-6.6,8.4-11.8,14.7-15.5c6.2-3.7,13.2-5.6,21-5.6c7.8,0,14.7,1.8,20.9,5.5c6.2,3.7,11,8.8,14.6,15.3
					c3.5,6.6,5.3,14,5.3,22.3L2062.3,201.5z M2005.5,167.4c-4.8,2.7-8.7,6.4-11.5,11.3c-2.9,4.9-4.6,10.3-5,16.5h65.5
					c-0.3-6.1-2-11.6-4.9-16.4c-2.9-4.8-6.8-8.6-11.6-11.3c-4.8-2.7-10.2-4.1-16.2-4.1C2015.7,163.4,2010.3,164.7,2005.5,167.4z"/>
			</g>
			<g>
				<path class="st0" d="M806.4,495.8h-98l-19.3,45.3h-37.5l88.2-195.9h35.8l88.5,195.9H826L806.4,495.8z M794.4,467.2l-36.9-85.7
					l-36.7,85.7H794.4z"/>
				<path class="st0" d="M1007.5,399.5c11.5,6.3,20.5,15.3,27,26.9c6.5,11.6,9.8,24.9,9.8,40c0,15.1-3.3,28.5-9.8,40.2
					c-6.5,11.7-15.5,20.7-27,27c-11.5,6.3-24.5,9.5-39,9.5c-20.2,0-36.1-6.7-47.9-20.2v72.5h-35V391.7H919v19.6
					c5.8-7.1,12.9-12.4,21.4-16c8.5-3.5,17.9-5.3,28.1-5.3C983.1,390,996.1,393.2,1007.5,399.5z M996.3,500.3
					c8.3-8.6,12.5-19.9,12.5-33.9c0-14-4.2-25.3-12.5-33.9c-8.3-8.6-18.9-12.9-31.8-12.9c-8.4,0-16,1.9-22.7,5.7
					c-6.7,3.8-12,9.3-16,16.4c-3.9,7.1-5.9,15.3-5.9,24.6c0,9.3,2,17.5,5.9,24.6c3.9,7.1,9.2,12.6,16,16.4
					c6.7,3.8,14.3,5.7,22.7,5.7C977.5,513.1,988,508.8,996.3,500.3z"/>
				<path class="st0" d="M1199.6,399.5c11.5,6.3,20.5,15.3,27,26.9c6.5,11.6,9.8,24.9,9.8,40c0,15.1-3.3,28.5-9.8,40.2
					c-6.5,11.7-15.5,20.7-27,27c-11.5,6.3-24.5,9.5-39,9.5c-20.2,0-36.1-6.7-47.9-20.2v72.5h-35V391.7h33.3v19.6
					c5.8-7.1,12.9-12.4,21.4-16c8.5-3.5,17.9-5.3,28.1-5.3C1175.1,390,1188.1,393.2,1199.6,399.5z M1188.4,500.3
					c8.3-8.6,12.5-19.9,12.5-33.9c0-14-4.2-25.3-12.5-33.9c-8.3-8.6-18.9-12.9-31.8-12.9c-8.4,0-16,1.9-22.7,5.7
					c-6.7,3.8-12,9.3-16,16.4c-3.9,7.1-5.9,15.3-5.9,24.6c0,9.3,2,17.5,5.9,24.6c3.9,7.1,9.2,12.6,16,16.4
					c6.7,3.8,14.3,5.7,22.7,5.7C1169.5,513.1,1180.1,508.8,1188.4,500.3z"/>
				<path class="st0" d="M1367.2,537.5c-14.1-4.3-25.2-10-33.4-17.1l12.6-28.3c8,6.3,17.9,11.5,29.5,15.5c11.7,4,23.4,6,35.1,6
					c14.6,0,25.4-2.3,32.6-7c7.2-4.7,10.8-10.8,10.8-18.5c0-5.6-2-10.2-6-13.9c-4-3.6-9.1-6.5-15.3-8.5c-6.2-2.1-14.6-4.4-25.2-7
					c-14.9-3.5-27-7.1-36.2-10.6c-9.2-3.5-17.2-9.1-23.8-16.7c-6.6-7.6-9.9-17.8-9.9-30.6c0-10.8,2.9-20.7,8.8-29.5
					c5.9-8.9,14.7-15.9,26.6-21.1c11.8-5.2,26.4-7.8,43.5-7.8c11.9,0,23.7,1.5,35.3,4.5c11.6,3,21.6,7.3,29.9,12.9l-11.5,28.3
					c-8.6-5-17.5-8.9-26.9-11.5c-9.3-2.6-18.4-3.9-27.2-3.9c-14.4,0-25.1,2.4-32,7.3c-7,4.9-10.5,11.3-10.5,19.3
					c0,5.6,2,10.2,6,13.7c4,3.5,9.1,6.3,15.3,8.4c6.2,2.1,14.6,4.4,25.2,7c14.6,3.4,26.5,6.9,35.8,10.5c9.3,3.6,17.3,9.2,23.9,16.7
					c6.6,7.5,9.9,17.5,9.9,30.2c0,10.8-2.9,20.6-8.8,29.4c-5.9,8.8-14.8,15.8-26.7,21c-11.9,5.2-26.5,7.8-43.7,7.8
					C1395.9,543.9,1381.3,541.8,1367.2,537.5z"/>
				<path class="st0" d="M1612.8,533c-4.1,3.4-9.1,5.9-15,7.6c-5.9,1.7-12.1,2.5-18.6,2.5c-16.4,0-29.1-4.3-38.1-12.9
					c-9-8.6-13.4-21.1-13.4-37.5v-71.9h-24.6v-28h24.6v-34.1h35v34.1h40v28h-40v71.1c0,7.3,1.8,12.8,5.3,16.7
					c3.5,3.8,8.7,5.7,15.4,5.7c7.8,0,14.4-2.1,19.6-6.2L1612.8,533z"/>
				<path class="st0" d="M1662.9,533.3c-12.1-6.5-21.6-15.6-28.4-27.3c-6.8-11.7-10.2-24.9-10.2-39.6c0-14.7,3.4-27.9,10.2-39.5
					c6.8-11.6,16.3-20.6,28.4-27.2c12.1-6.5,25.8-9.8,40.9-9.8c15.3,0,29,3.3,41.1,9.8c12.1,6.5,21.6,15.6,28.4,27.2
					c6.8,11.6,10.2,24.7,10.2,39.5c0,14.7-3.4,27.9-10.2,39.6c-6.8,11.7-16.3,20.8-28.4,27.3c-12.1,6.5-25.8,9.8-41.1,9.8
					C1688.7,543.1,1675.1,539.8,1662.9,533.3z M1735.7,500.3c8.4-8.6,12.6-19.9,12.6-33.9c0-14-4.2-25.3-12.6-33.9
					c-8.4-8.6-19-12.9-31.9-12.9c-12.9,0-23.5,4.3-31.8,12.9c-8.3,8.6-12.5,19.9-12.5,33.9c0,14,4.2,25.3,12.5,33.9
					c8.3,8.6,18.9,12.9,31.8,12.9C1716.7,513.1,1727.3,508.8,1735.7,500.3z"/>
				<path class="st0" d="M1903.6,390v33.3c-3-0.6-5.7-0.8-8.1-0.8c-13.6,0-24.3,4-31.9,11.9c-7.7,7.9-11.5,19.4-11.5,34.3v72.5h-35
					V391.7h33.3v21.8C1860.5,397.8,1878.3,390,1903.6,390z"/>
				<path class="st0" d="M2071.9,477.6h-117.3c2.1,11,7.4,19.7,16.1,26.2c8.7,6.4,19.5,9.7,32.3,9.7c16.4,0,29.9-5.4,40.6-16.2
					l18.8,21.6c-6.7,8-15.2,14.1-25.5,18.2c-10.3,4.1-21.8,6.2-34.7,6.2c-16.4,0-30.9-3.3-43.4-9.8c-12.5-6.5-22.2-15.6-29-27.3
					c-6.8-11.7-10.2-24.9-10.2-39.6c0-14.6,3.3-27.7,9.9-39.3c6.6-11.7,15.8-20.8,27.6-27.3c11.8-6.5,25-9.8,39.7-9.8
					c14.6,0,27.6,3.2,39,9.7c11.5,6.4,20.4,15.5,26.9,27.2c6.4,11.7,9.7,25.1,9.7,40.4C2072.4,469.7,2072.2,473.1,2071.9,477.6z
					 M1968.4,427.9c-7.7,6.6-12.5,15.4-14.1,26.5h84.8c-1.5-10.8-6.1-19.6-13.7-26.3c-7.7-6.7-17.2-10.1-28.5-10.1
					C1985.7,418,1976.2,421.3,1968.4,427.9z"/>
			</g>
		</g>
	</g>
</g>
</svg>
