<?xml version="1.0" encoding="utf-8"?>
<!-- Generator: Adobe Illustrator 27.0.1, SVG Export Plug-In . SVG Version: 6.00 Build 0)  -->
<svg version="1.1" id="Layer_1" xmlns="http://www.w3.org/2000/svg" xmlns:xlink="http://www.w3.org/1999/xlink" x="0px" y="0px"
	 viewBox="0 0 2412.6 733.7" style="enable-background:new 0 0 2412.6 733.7;" xml:space="preserve">
<style type="text/css">
	.st0{fill:#FFFFFF;}
</style>
<g>
	<g>
		<g>
			<g>
				<g>
					<path d="M2319.4,733.7H93.3C41.8,733.7,0,691.9,0,640.4V93.3C0,41.8,41.8,0,93.3,0h2226.1c51.5,0,93.3,41.8,93.3,93.3v547.2
						C2412.6,691.9,2370.9,733.7,2319.4,733.7z"/>
				</g>
			</g>
			<g>
				<g>
					<g>
						<path class="st0" d="M750.3,210h-66.5l-14.6,32.3h-9l52.7-114.7h8.4L774,242.3h-9L750.3,210z M747.2,203L717,136.8l-30,66.2
							H747.2z"/>
					</g>
					<g>
						<path class="st0" d="M856.6,156.8l-38.7,85.5h-8.4l-38.5-85.5h8.7l34.1,76.5l34.4-76.5H856.6z"/>
					</g>
					<g>
						<path class="st0" d="M925.1,164.3c5.7,5.4,8.5,13.3,8.5,23.8v54.2h-7.9v-15.2c-2.7,5-6.7,8.9-12,11.7
							c-5.2,2.8-11.5,4.2-18.8,4.2c-9.5,0-17-2.2-22.5-6.7c-5.5-4.5-8.3-10.4-8.3-17.7c0-7.1,2.5-12.9,7.6-17.3
							c5.1-4.4,13.2-6.6,24.3-6.6h29.3v-6.9c0-8-2.2-14-6.5-18.2c-4.3-4.1-10.6-6.2-18.9-6.2c-5.7,0-11.1,1-16.3,2.9
							c-5.2,2-9.6,4.6-13.2,7.9l-4.1-5.9c4.3-3.8,9.4-6.8,15.4-8.9c6-2.1,12.3-3.2,18.8-3.2C911.2,156.2,919.4,158.9,925.1,164.3z
							 M914.2,231.3c5-3.3,8.7-8,11.2-14.2V201h-29.2c-8.4,0-14.5,1.5-18.3,4.6c-3.8,3.1-5.7,7.3-5.7,12.6c0,5.6,2.1,10,6.2,13.2
							c4.1,3.2,10,4.8,17.5,4.8C903.2,236.3,909.2,234.6,914.2,231.3z"/>
					</g>
					<g>
						<path class="st0" d="M966.7,134.1c-1.3-1.3-2-2.8-2-4.7c0-1.9,0.7-3.4,2-4.8c1.3-1.3,2.9-2,4.8-2c1.9,0,3.4,0.6,4.8,1.9
							c1.3,1.3,2,2.8,2,4.7c0,1.9-0.7,3.4-2,4.8c-1.3,1.3-2.9,2-4.8,2C969.5,136,968,135.4,966.7,134.1z M967.3,156.8h8.2v85.5h-8.2
							V156.8z"/>
					</g>
					<g>
						<path class="st0" d="M1010.1,120.8h8.2v121.5h-8.2V120.8z"/>
					</g>
					<g>
						<path class="st0" d="M1106,164.3c5.7,5.4,8.5,13.3,8.5,23.8v54.2h-7.9v-15.2c-2.7,5-6.7,8.9-12,11.7
							c-5.2,2.8-11.5,4.2-18.8,4.2c-9.5,0-17-2.2-22.5-6.7c-5.5-4.5-8.3-10.4-8.3-17.7c0-7.1,2.5-12.9,7.6-17.3
							c5.1-4.4,13.2-6.6,24.3-6.6h29.3v-6.9c0-8-2.2-14-6.5-18.2c-4.3-4.1-10.6-6.2-18.9-6.2c-5.7,0-11.1,1-16.3,2.9
							c-5.2,2-9.6,4.6-13.2,7.9l-4.1-5.9c4.3-3.8,9.4-6.8,15.4-8.9c6-2.1,12.3-3.2,18.8-3.2C1092.2,156.2,1100.4,158.9,1106,164.3z
							 M1095.1,231.3c5-3.3,8.7-8,11.2-14.2V201h-29.2c-8.4,0-14.5,1.5-18.3,4.6c-3.8,3.1-5.7,7.3-5.7,12.6c0,5.6,2.1,10,6.2,13.2
							c4.1,3.2,10,4.8,17.5,4.8C1084.1,236.3,1090.2,234.6,1095.1,231.3z"/>
					</g>
					<g>
						<path class="st0" d="M1212.8,161.6c6.4,3.7,11.5,8.8,15.2,15.4c3.7,6.6,5.5,14.1,5.5,22.5c0,8.4-1.8,15.9-5.5,22.4
							c-3.7,6.6-8.7,11.7-15.2,15.4c-6.4,3.7-13.7,5.6-21.6,5.6c-7.6,0-14.6-1.8-20.7-5.5c-6.2-3.7-10.9-8.8-14.3-15.3v20.1h-7.9
							V120.8h8.2v55.5c3.4-6.3,8.1-11.3,14.2-14.8c6.1-3.5,12.9-5.3,20.5-5.3C1199.2,156.2,1206.4,158,1212.8,161.6z M1208.4,231
							c5.2-3.1,9.4-7.3,12.4-12.8c3-5.5,4.5-11.7,4.5-18.7c0-7-1.5-13.2-4.5-18.7c-3-5.5-7.1-9.7-12.4-12.8
							c-5.2-3.1-11.1-4.6-17.7-4.6s-12.4,1.5-17.6,4.6c-5.2,3.1-9.3,7.3-12.3,12.8c-3,5.5-4.5,11.7-4.5,18.7c0,7,1.5,13.2,4.5,18.7
							c3,5.5,7.1,9.7,12.3,12.8c5.2,3.1,11.1,4.6,17.6,4.6S1203.2,234.1,1208.4,231z"/>
					</g>
					<g>
						<path class="st0" d="M1258.9,120.8h8.2v121.5h-8.2V120.8z"/>
					</g>
					<g>
						<path class="st0" d="M1373.8,201.5h-73.5c0.2,6.7,1.9,12.6,5.1,17.8c3.2,5.2,7.5,9.2,12.9,12c5.4,2.8,11.5,4.3,18.3,4.3
							c5.6,0,10.7-1,15.5-3c4.8-2,8.7-5,11.9-8.9l4.8,5.4c-3.7,4.5-8.4,7.9-14,10.3c-5.6,2.4-11.7,3.6-18.3,3.6
							c-8.5,0-16.1-1.9-22.8-5.6c-6.7-3.7-11.9-8.8-15.6-15.4c-3.8-6.6-5.7-14-5.7-22.4c0-8.3,1.8-15.7,5.3-22.4
							c3.5-6.6,8.4-11.8,14.7-15.5c6.2-3.7,13.2-5.6,21-5.6c7.8,0,14.7,1.8,20.9,5.5c6.2,3.7,11,8.8,14.6,15.3
							c3.5,6.6,5.3,14,5.3,22.3L1373.8,201.5z M1317,167.4c-4.8,2.7-8.7,6.4-11.5,11.3c-2.9,4.9-4.6,10.3-5,16.5h65.5
							c-0.3-6.1-2-11.6-4.9-16.4c-2.9-4.8-6.8-8.6-11.6-11.3c-4.8-2.7-10.2-4.1-16.2-4.1C1327.2,163.4,1321.8,164.7,1317,167.4z"/>
					</g>
					<g>
						<path class="st0" d="M1453,237.4c-6.5-3.7-11.6-8.9-15.3-15.5c-3.7-6.6-5.6-14.1-5.6-22.4c0-8.3,1.9-15.7,5.6-22.4
							c3.7-6.6,8.8-11.8,15.3-15.5c6.5-3.7,13.8-5.6,21.9-5.6c8.1,0,15.4,1.9,21.9,5.6c6.5,3.7,11.6,8.9,15.3,15.5
							c3.7,6.6,5.6,14.1,5.6,22.4c0,8.3-1.9,15.8-5.6,22.4c-3.7,6.6-8.8,11.8-15.3,15.5c-6.5,3.7-13.8,5.6-21.9,5.6
							C1466.8,243,1459.5,241.1,1453,237.4z M1492.5,231c5.2-3.1,9.3-7.3,12.3-12.8c3-5.5,4.5-11.7,4.5-18.7c0-7-1.5-13.2-4.5-18.7
							c-3-5.5-7.1-9.7-12.3-12.8c-5.2-3.1-11.1-4.6-17.6-4.6s-12.4,1.5-17.6,4.6c-5.2,3.1-9.3,7.3-12.3,12.8
							c-3,5.5-4.5,11.7-4.5,18.7c0,7,1.5,13.2,4.5,18.7c3,5.5,7.1,9.7,12.3,12.8c5.2,3.1,11.1,4.6,17.6,4.6S1487.3,234.1,1492.5,231
							z"/>
					</g>
					<g>
						<path class="st0" d="M1610.2,165.5c6.2,6.2,9.3,15.2,9.3,26.9v50h-8.2V193c0-9.6-2.4-16.9-7.3-21.9c-4.9-5-11.7-7.5-20.4-7.5
							c-10,0-18,3-23.8,9c-5.8,6-8.7,14.1-8.7,24.2v45.5h-8.2v-85.5h7.9v18.5c2.9-6,7.3-10.7,13.2-14.1c5.8-3.4,12.7-5.1,20.7-5.1
							C1595.5,156.2,1604,159.3,1610.2,165.5z"/>
					</g>
					<g>
						<path class="st0" d="M1737.8,236.9c-2.1,2-4.7,3.5-7.8,4.5c-3.1,1-6.4,1.6-9.7,1.6c-7.4,0-13.2-2-17.2-6.1
							c-4-4.1-6.1-9.8-6.1-17.1v-55.9h-15.7v-7h15.7v-18.7h8.2v18.7h27.2v7h-27.2v55c0,5.6,1.3,9.8,4,12.7c2.7,2.9,6.6,4.3,11.9,4.3
							c5.3,0,9.8-1.6,13.3-4.8L1737.8,236.9z"/>
					</g>
					<g>
						<path class="st0" d="M1827.7,165.5c6.2,6.2,9.3,15.2,9.3,26.9v50h-8.2V193c0-9.6-2.4-16.9-7.3-21.9c-4.9-5-11.7-7.5-20.4-7.5
							c-10,0-18,3-23.8,9c-5.8,6-8.7,14.1-8.7,24.2v45.5h-8.2V120.8h8.2v53.9c2.9-5.9,7.3-10.5,13.1-13.7c5.8-3.2,12.6-4.8,20.5-4.8
							C1813,156.2,1821.5,159.3,1827.7,165.5z"/>
					</g>
					<g>
						<path class="st0" d="M1943.2,201.5h-73.5c0.2,6.7,1.9,12.6,5.1,17.8c3.2,5.2,7.5,9.2,12.9,12c5.4,2.8,11.5,4.3,18.3,4.3
							c5.6,0,10.7-1,15.5-3c4.8-2,8.7-5,11.9-8.9l4.8,5.4c-3.7,4.5-8.4,7.9-14,10.3c-5.6,2.4-11.7,3.6-18.3,3.6
							c-8.5,0-16.1-1.9-22.8-5.6c-6.7-3.7-11.9-8.8-15.6-15.4c-3.8-6.6-5.7-14-5.7-22.4c0-8.3,1.8-15.7,5.3-22.4
							c3.5-6.6,8.4-11.8,14.7-15.5c6.2-3.7,13.2-5.6,21-5.6c7.8,0,14.7,1.8,20.9,5.5c6.2,3.7,11,8.8,14.6,15.3
							c3.5,6.6,5.3,14,5.3,22.3L1943.2,201.5z M1886.3,167.4c-4.8,2.7-8.7,6.4-11.5,11.3c-2.9,4.9-4.6,10.3-5,16.5h65.5
							c-0.3-6.1-2-11.6-4.9-16.4c-2.9-4.8-6.8-8.6-11.6-11.3c-4.8-2.7-10.2-4.1-16.2-4.1C1896.5,163.4,1891.1,164.7,1886.3,167.4z"
							/>
					</g>
				</g>
				<g>
					<g>
						<path class="st0" d="M790.7,443.2h33.6v76.3c-9.8,7.8-21.3,13.9-34.5,18.1c-13.1,4.2-26.6,6.3-40.5,6.3
							c-19.5,0-37.1-4.2-52.8-12.7c-15.7-8.5-28-20.2-36.9-35.2c-8.9-15-13.4-31.8-13.4-50.6c0-18.8,4.5-35.7,13.4-50.6
							c8.9-15,21.3-26.7,37.1-35.2c15.8-8.5,33.5-12.7,53.2-12.7c16,0,30.6,2.6,43.8,7.9c13.1,5.3,24.2,13,33.1,23.3L804.4,400
							c-14.6-14.6-32.2-21.9-52.8-21.9c-13.5,0-25.5,2.8-36,8.5c-10.5,5.7-18.7,13.6-24.6,23.8c-5.9,10.2-8.9,21.9-8.9,35
							c0,12.8,3,24.3,8.9,34.5c5.9,10.2,14.1,18.2,24.6,24.1c10.5,5.8,22.4,8.8,35.7,8.8c15,0,28.1-3.3,39.4-9.8V443.2z"/>
					</g>
					<g>
						<path class="st0" d="M893.5,533.5c-11.9-6.4-21.1-15.3-27.8-26.7c-6.7-11.4-10-24.3-10-38.7c0-14.4,3.3-27.3,10-38.6
							c6.7-11.3,15.9-20.1,27.8-26.5c11.9-6.4,25.2-9.6,39.9-9.6c15,0,28.4,3.2,40.2,9.6c11.9,6.4,21.1,15.2,27.8,26.5
							c6.7,11.3,10,24.2,10,38.6c0,14.4-3.3,27.3-10,38.7c-6.7,11.4-15.9,20.3-27.8,26.7c-11.9,6.4-25.3,9.6-40.2,9.6
							C918.7,543,905.4,539.9,893.5,533.5z M964.6,501.2c8.2-8.4,12.3-19.4,12.3-33.1c0-13.7-4.1-24.7-12.3-33.1
							c-8.2-8.4-18.6-12.6-31.2-12.6c-12.6,0-22.9,4.2-31,12.6c-8.1,8.4-12.2,19.4-12.2,33.1c0,13.7,4.1,24.7,12.2,33.1
							c8.1,8.4,18.5,12.6,31,12.6C946,513.8,956.4,509.6,964.6,501.2z"/>
					</g>
					<g>
						<path class="st0" d="M1070,533.5c-11.9-6.4-21.1-15.3-27.8-26.7c-6.7-11.4-10-24.3-10-38.7c0-14.4,3.3-27.3,10-38.6
							c6.7-11.3,15.9-20.1,27.8-26.5c11.9-6.4,25.2-9.6,39.9-9.6c15,0,28.4,3.2,40.2,9.6c11.9,6.4,21.1,15.2,27.8,26.5
							c6.7,11.3,10,24.2,10,38.6c0,14.4-3.3,27.3-10,38.7c-6.7,11.4-15.9,20.3-27.8,26.7c-11.9,6.4-25.3,9.6-40.2,9.6
							C1095.1,543,1081.8,539.9,1070,533.5z M1141.1,501.2c8.2-8.4,12.3-19.4,12.3-33.1c0-13.7-4.1-24.7-12.3-33.1
							c-8.2-8.4-18.6-12.6-31.2-12.6c-12.6,0-22.9,4.2-31,12.6c-8.1,8.4-12.2,19.4-12.2,33.1c0,13.7,4.1,24.7,12.2,33.1
							c8.1,8.4,18.5,12.6,31,12.6C1122.5,513.8,1132.9,509.6,1141.1,501.2z"/>
					</g>
					<g>
						<path class="st0" d="M1365.7,395.1V519c0,51.4-26.3,77.1-78.8,77.1c-14,0-27.4-1.8-39.9-5.3c-12.6-3.6-23-8.7-31.2-15.5
							l15.3-25.7c6.4,5.3,14.5,9.5,24.2,12.7c9.8,3.2,19.6,4.8,29.7,4.8c16,0,27.8-3.7,35.3-10.9c7.5-7.3,11.2-18.4,11.2-33.4v-7.7
							c-5.8,6.4-12.9,11.2-21.3,14.5c-8.4,3.3-17.6,4.9-27.6,4.9c-13.9,0-26.4-3-37.6-8.9c-11.2-5.9-20.1-14.3-26.5-25
							c-6.5-10.8-9.7-23.1-9.7-36.9c0-13.9,3.2-26.1,9.7-36.8c6.5-10.7,15.3-18.9,26.5-24.8c11.2-5.8,23.8-8.8,37.6-8.8
							c10.6,0,20.2,1.7,28.9,5.2c8.7,3.5,15.9,8.8,21.7,15.9v-19.4H1365.7z M1319.6,493.9c8.3-7.7,12.4-17.8,12.4-30.2
							c0-12.2-4.2-22.2-12.4-29.8c-8.3-7.7-18.9-11.5-31.9-11.5c-13.1,0-23.8,3.8-32.1,11.5c-8.3,7.7-12.4,17.6-12.4,29.8
							c0,12.4,4.1,22.5,12.4,30.2c8.3,7.8,19,11.6,32.1,11.6C1300.6,505.6,1311.3,501.7,1319.6,493.9z"/>
					</g>
					<g>
						<path class="st0" d="M1410.5,338.2h34.2v203h-34.2V338.2z"/>
					</g>
					<g>
						<path class="st0" d="M1626.3,479h-114.6c2,10.8,7.2,19.3,15.7,25.6c8.5,6.3,19,9.4,31.6,9.4c16,0,29.3-5.3,39.7-15.9
							l18.3,21.1c-6.6,7.8-14.9,13.8-24.9,17.8c-10,4-21.3,6-33.9,6c-16,0-30.2-3.2-42.4-9.6c-12.2-6.4-21.7-15.3-28.3-26.7
							c-6.7-11.4-10-24.3-10-38.7c0-14.2,3.2-27,9.7-38.4c6.5-11.4,15.5-20.3,26.9-26.7c11.5-6.4,24.4-9.6,38.8-9.6
							c14.2,0,26.9,3.1,38.2,9.4c11.2,6.3,20,15.1,26.3,26.5c6.3,11.4,9.4,24.6,9.4,39.5C1626.9,471.3,1626.7,474.7,1626.3,479z
							 M1525.3,430.5c-7.6,6.5-12.2,15.1-13.8,25.9h82.9c-1.5-10.6-5.9-19.1-13.4-25.7c-7.5-6.6-16.8-9.8-27.9-9.8
							C1542.1,420.8,1532.8,424,1525.3,430.5z"/>
					</g>
					<g>
						<path class="st0" d="M1860.6,357.8c12.3,5.5,21.7,13.3,28.3,23.5c6.6,10.2,9.8,22.3,9.8,36.4c0,13.9-3.3,25.9-9.8,36.2
							c-6.6,10.3-16,18.2-28.3,23.7c-12.3,5.5-26.8,8.2-43.4,8.2h-43.2v55.3h-35.6V349.6h78.8
							C1833.9,349.6,1848.3,352.4,1860.6,357.8z M1850.9,445.9c8-6.6,12-16,12-28.2c0-12.2-4-21.6-12-28.2c-8-6.6-19.8-9.8-35.3-9.8
							h-41.6v76h41.6C1831.1,455.8,1842.9,452.5,1850.9,445.9z"/>
					</g>
					<g>
						<path class="st0" d="M1933.8,338.2h34.2v203h-34.2V338.2z"/>
					</g>
					<g>
						<path class="st0" d="M2118,408.9c11.4,10.3,17.1,25.9,17.1,46.6v85.6h-32.3v-17.8c-4.2,6.4-10.2,11.3-17.9,14.6
							c-7.8,3.4-17.1,5.1-28,5.1c-10.9,0-20.5-1.9-28.7-5.6c-8.2-3.7-14.5-8.9-19-15.6c-4.5-6.7-6.7-14.2-6.7-22.6
							c0-13.1,4.9-23.7,14.6-31.6c9.8-7.9,25.1-11.9,46.1-11.9h37.8v-2.2c0-10.2-3.1-18.1-9.2-23.5c-6.1-5.5-15.2-8.2-27.2-8.2
							c-8.2,0-16.3,1.3-24.2,3.8c-7.9,2.6-14.6,6.1-20.1,10.7l-13.4-24.9c7.7-5.8,16.9-10.3,27.6-13.4c10.8-3.1,22.2-4.7,34.2-4.7
							C2090.2,393.4,2106.6,398.6,2118,408.9z M2086.9,512.3c6.7-3.9,11.4-9.5,14.1-16.8v-17h-35.3c-19.7,0-29.5,6.5-29.5,19.4
							c0,6.2,2.5,11.1,7.4,14.8c4.9,3.7,11.8,5.5,20.5,5.5C2072.6,518.1,2080.2,516.2,2086.9,512.3z"/>
					</g>
					<g>
						<path class="st0" d="M2312.9,395.1l-68.4,157.8c-6.4,15.9-14.1,27-23.3,33.5c-9.1,6.5-20.2,9.7-33.1,9.7
							c-7.3,0-14.5-1.2-21.6-3.6c-7.1-2.4-12.9-5.7-17.5-9.8l13.7-25.2c3.3,3.1,7.2,5.6,11.6,7.4c4.5,1.8,9,2.7,13.5,2.7
							c6,0,11-1.6,14.9-4.7c3.9-3.1,7.5-8.3,10.8-15.6l2.5-5.7l-63.7-146.6h35.6l46,108.1l46.2-108.1H2312.9z"/>
					</g>
				</g>
			</g>
			<g>
				<g>
					<g>
						<path class="st0" d="M580.5,357.5l-91.9-53L413,377.5l69.1,66.8l98.4-56.8c5.4-3.1,8.7-8.7,8.7-15
							C589.2,366.2,585.9,360.6,580.5,357.5z"/>
					</g>
				</g>
				<g>
					<g>
						<polygon class="st0" points="473,295.4 371.8,237 150.2,123.4 400.6,365.5 						"/>
					</g>
				</g>
				<g>
					<g>
						<polygon class="st0" points="153.8,628 372.2,507.7 466.5,453.3 400.6,389.6 						"/>
					</g>
				</g>
				<g>
					<g>
						<polygon class="st0" points="135.4,133.2 135.1,622 388.1,377.5 						"/>
					</g>
				</g>
			</g>
		</g>
	</g>
</g>
</svg>
